<mxfile host="Electron" modified="2024-03-25T14:11:42.296Z" agent="Mozilla/5.0 (Macintosh; Intel Mac OS X 10_15_7) AppleWebKit/537.36 (KHTML, like Gecko) draw.io/24.1.0 Chrome/120.0.6099.109 Electron/28.1.0 Safari/537.36" etag="xV_hxeBo39iN1ESUI60s" version="24.1.0" type="device" pages="2">
  <diagram name="navigation_diagram" id="g5HNl8i1ePXdnYxn00Gr">
    <mxGraphModel dx="954" dy="1896" grid="1" gridSize="10" guides="1" tooltips="1" connect="1" arrows="1" fold="1" page="1" pageScale="1" pageWidth="827" pageHeight="1169" math="0" shadow="0">
      <root>
        <mxCell id="0" />
        <mxCell id="1" parent="0" />
        <mxCell id="RgY5TkkTzBITuK21L_si-1" value="RENDEZVOUS&lt;div&gt;1. Sign in&lt;/div&gt;&lt;div&gt;2. Sign up&lt;/div&gt;&lt;div&gt;3. Admin&lt;/div&gt;&lt;div&gt;4. Exit&lt;/div&gt;" style="rounded=0;whiteSpace=wrap;html=1;align=left;labelPosition=center;verticalLabelPosition=middle;verticalAlign=middle;textDirection=ltr;horizontal=1;spacingLeft=10;" parent="1" vertex="1">
          <mxGeometry x="40" y="280" width="110" height="110" as="geometry" />
        </mxCell>
        <mxCell id="RgY5TkkTzBITuK21L_si-2" value="USER PAGE&lt;div&gt;1. Event page: view, search and attend event&lt;/div&gt;&lt;div&gt;2. Create and manage your own events&lt;/div&gt;&lt;div&gt;3. User profile: view and edit your profile&lt;/div&gt;&lt;div&gt;4. Log out&lt;/div&gt;" style="rounded=0;whiteSpace=wrap;html=1;align=left;spacingLeft=10;" parent="1" vertex="1">
          <mxGeometry x="240" y="120" width="270" height="110" as="geometry" />
        </mxCell>
        <mxCell id="RgY5TkkTzBITuK21L_si-4" value="USERS MANAGEMENT&lt;div&gt;1. View users&lt;/div&gt;&lt;div&gt;2. Search user&lt;/div&gt;&lt;div&gt;3. Add user&lt;/div&gt;&lt;div&gt;4. Remove user&lt;/div&gt;&lt;div&gt;5. Go back&lt;/div&gt;" style="rounded=0;whiteSpace=wrap;html=1;align=left;spacingLeft=10;" parent="1" vertex="1">
          <mxGeometry x="640" y="280" width="160" height="120" as="geometry" />
        </mxCell>
        <mxCell id="RgY5TkkTzBITuK21L_si-5" value="ADMIN&lt;div&gt;1. Users management&lt;/div&gt;&lt;div&gt;2. Events management&lt;/div&gt;&lt;div&gt;3. Extra&lt;/div&gt;&lt;div&gt;4. Log out&lt;/div&gt;" style="rounded=0;whiteSpace=wrap;html=1;align=left;spacingLeft=10;" parent="1" vertex="1">
          <mxGeometry x="240" y="440" width="160" height="100" as="geometry" />
        </mxCell>
        <mxCell id="RgY5TkkTzBITuK21L_si-6" value="EVENTS MANAGEMENT&lt;div&gt;1. See requests&lt;/div&gt;&lt;div&gt;2. Remove a request&lt;/div&gt;&lt;div&gt;3. Remove all requests&lt;/div&gt;&lt;div&gt;4. View events&lt;/div&gt;&lt;div&gt;5. Create an event&lt;/div&gt;&lt;div&gt;6. Edit an event&lt;/div&gt;&lt;div&gt;7. Cancel an event&lt;/div&gt;&lt;div&gt;8. View all the participations&lt;/div&gt;&lt;div&gt;9. Go back&lt;/div&gt;" style="rounded=0;whiteSpace=wrap;html=1;align=left;spacingLeft=10;" parent="1" vertex="1">
          <mxGeometry x="640" y="460" width="190" height="170" as="geometry" />
        </mxCell>
        <mxCell id="RgY5TkkTzBITuK21L_si-7" value="EXTRA&lt;div&gt;1. Reset password&lt;/div&gt;&lt;div&gt;2. Reset database&lt;/div&gt;&lt;div&gt;3. Generate a default database&lt;/div&gt;&lt;div&gt;4. Go back&lt;/div&gt;" style="rounded=0;whiteSpace=wrap;html=1;align=left;spacingLeft=10;" parent="1" vertex="1">
          <mxGeometry x="640" y="680" width="200" height="100" as="geometry" />
        </mxCell>
        <mxCell id="RgY5TkkTzBITuK21L_si-8" value="EVENT PAGE&lt;div&gt;1. View events&lt;/div&gt;&lt;div&gt;2. Search an event&lt;/div&gt;&lt;div&gt;3. Attend an event&lt;/div&gt;&lt;div&gt;4. View the events you are attending&lt;/div&gt;&lt;div&gt;5. Go back&lt;/div&gt;" style="rounded=0;whiteSpace=wrap;html=1;align=left;spacingLeft=10;" parent="1" vertex="1">
          <mxGeometry x="640" y="-200" width="225" height="110" as="geometry" />
        </mxCell>
        <mxCell id="RgY5TkkTzBITuK21L_si-9" value="EVENT MANAGEMENT&lt;div&gt;1. Create an event&lt;/div&gt;&lt;div&gt;2. View your events&lt;/div&gt;&lt;div&gt;3. View who&#39;s attending your events&lt;/div&gt;&lt;div&gt;4. Edit your events&lt;/div&gt;&lt;div&gt;5. Go back&lt;/div&gt;" style="rounded=0;whiteSpace=wrap;html=1;align=left;spacingLeft=10;" parent="1" vertex="1">
          <mxGeometry x="640" y="-40" width="220" height="110" as="geometry" />
        </mxCell>
        <mxCell id="RgY5TkkTzBITuK21L_si-10" value="USER PROFILE&lt;div&gt;1. View your profile&lt;/div&gt;&lt;div&gt;2. Edit your profile&lt;/div&gt;&lt;div&gt;3. Go back&lt;/div&gt;" style="rounded=0;whiteSpace=wrap;html=1;align=left;spacingLeft=10;" parent="1" vertex="1">
          <mxGeometry x="640" y="125" width="130" height="90" as="geometry" />
        </mxCell>
        <mxCell id="RgY5TkkTzBITuK21L_si-11" value="EVENT EDITOR&lt;div&gt;(only the admin can edit the event&#39;s date, location and price once the event is created)&lt;/div&gt;&lt;div&gt;1. Change an event&#39;s description&lt;/div&gt;&lt;div&gt;2. Request to change an event&#39;s date, location and price&lt;/div&gt;&lt;div&gt;3. Request to cancel an event&lt;/div&gt;&lt;div&gt;4. Go back&lt;/div&gt;" style="rounded=0;whiteSpace=wrap;html=1;align=left;spacingLeft=10;" parent="1" vertex="1">
          <mxGeometry x="1030" y="-210" width="350" height="130" as="geometry" />
        </mxCell>
        <mxCell id="RgY5TkkTzBITuK21L_si-12" value="PROFILE EDITOR&lt;div&gt;1. Personal data&lt;/div&gt;&lt;div&gt;2. Login data&lt;/div&gt;&lt;div&gt;3. Payment data&lt;/div&gt;&lt;div&gt;4. Go back&lt;/div&gt;" style="rounded=0;whiteSpace=wrap;html=1;align=left;spacingLeft=10;" parent="1" vertex="1">
          <mxGeometry x="890" y="122.5" width="130" height="95" as="geometry" />
        </mxCell>
        <mxCell id="RgY5TkkTzBITuK21L_si-13" value="PERSONAL DATA&lt;div&gt;1. Update name&lt;/div&gt;&lt;div&gt;2. Update surname&lt;/div&gt;&lt;div&gt;3. Update age&lt;/div&gt;&lt;div&gt;4. Go back&lt;/div&gt;" style="rounded=0;whiteSpace=wrap;html=1;align=left;spacingLeft=10;" parent="1" vertex="1">
          <mxGeometry x="1120" y="-40" width="130" height="100" as="geometry" />
        </mxCell>
        <mxCell id="RgY5TkkTzBITuK21L_si-14" value="LOGIN DATA&lt;div&gt;1. Update username&lt;/div&gt;&lt;div&gt;2. Update email&lt;/div&gt;&lt;div&gt;3. Update password&lt;/div&gt;&lt;div&gt;4. Go back&lt;/div&gt;" style="rounded=0;whiteSpace=wrap;html=1;align=left;spacingLeft=10;" parent="1" vertex="1">
          <mxGeometry x="1120" y="120" width="140" height="100" as="geometry" />
        </mxCell>
        <mxCell id="RgY5TkkTzBITuK21L_si-15" value="PAYMENT DATA&lt;div&gt;1. Set a payment method&lt;/div&gt;&lt;div&gt;2. Change the payment method&lt;/div&gt;&lt;div&gt;3. Remove the payment method&lt;/div&gt;&lt;div&gt;4. Update the credit card&lt;/div&gt;&lt;div&gt;5. Update the PayPal account&lt;/div&gt;&lt;div&gt;6. Go back&lt;/div&gt;" style="rounded=0;whiteSpace=wrap;html=1;align=left;spacingLeft=10;" parent="1" vertex="1">
          <mxGeometry x="1120" y="280" width="210" height="135" as="geometry" />
        </mxCell>
        <mxCell id="RgY5TkkTzBITuK21L_si-16" value="" style="endArrow=classic;html=1;rounded=0;exitX=1;exitY=0.5;exitDx=0;exitDy=0;entryX=0;entryY=0.5;entryDx=0;entryDy=0;" parent="1" source="RgY5TkkTzBITuK21L_si-2" target="RgY5TkkTzBITuK21L_si-8" edge="1">
          <mxGeometry width="50" height="50" relative="1" as="geometry">
            <mxPoint x="790" y="130" as="sourcePoint" />
            <mxPoint x="840" y="80" as="targetPoint" />
          </mxGeometry>
        </mxCell>
        <mxCell id="RgY5TkkTzBITuK21L_si-19" value="" style="endArrow=classic;html=1;rounded=0;exitX=1;exitY=0.5;exitDx=0;exitDy=0;entryX=0;entryY=0.5;entryDx=0;entryDy=0;" parent="1" source="RgY5TkkTzBITuK21L_si-2" target="RgY5TkkTzBITuK21L_si-10" edge="1">
          <mxGeometry width="50" height="50" relative="1" as="geometry">
            <mxPoint x="460" y="390" as="sourcePoint" />
            <mxPoint x="510" y="340" as="targetPoint" />
          </mxGeometry>
        </mxCell>
        <mxCell id="RgY5TkkTzBITuK21L_si-20" value="" style="endArrow=classic;html=1;rounded=0;exitX=1;exitY=0.5;exitDx=0;exitDy=0;entryX=0;entryY=0.5;entryDx=0;entryDy=0;" parent="1" source="RgY5TkkTzBITuK21L_si-2" target="RgY5TkkTzBITuK21L_si-9" edge="1">
          <mxGeometry width="50" height="50" relative="1" as="geometry">
            <mxPoint x="570" y="150" as="sourcePoint" />
            <mxPoint x="620" y="100" as="targetPoint" />
          </mxGeometry>
        </mxCell>
        <mxCell id="RgY5TkkTzBITuK21L_si-21" value="" style="endArrow=classic;html=1;rounded=0;exitX=1;exitY=0.5;exitDx=0;exitDy=0;entryX=0;entryY=0.5;entryDx=0;entryDy=0;" parent="1" source="RgY5TkkTzBITuK21L_si-10" target="RgY5TkkTzBITuK21L_si-12" edge="1">
          <mxGeometry width="50" height="50" relative="1" as="geometry">
            <mxPoint x="460" y="300" as="sourcePoint" />
            <mxPoint x="510" y="250" as="targetPoint" />
          </mxGeometry>
        </mxCell>
        <mxCell id="RgY5TkkTzBITuK21L_si-22" value="" style="endArrow=classic;html=1;rounded=0;exitX=1;exitY=0.5;exitDx=0;exitDy=0;entryX=0;entryY=0.5;entryDx=0;entryDy=0;" parent="1" source="RgY5TkkTzBITuK21L_si-1" target="RgY5TkkTzBITuK21L_si-2" edge="1">
          <mxGeometry width="50" height="50" relative="1" as="geometry">
            <mxPoint x="460" y="300" as="sourcePoint" />
            <mxPoint x="510" y="250" as="targetPoint" />
          </mxGeometry>
        </mxCell>
        <mxCell id="RgY5TkkTzBITuK21L_si-23" value="" style="endArrow=classic;html=1;rounded=0;exitX=1;exitY=0.5;exitDx=0;exitDy=0;entryX=0;entryY=0.5;entryDx=0;entryDy=0;" parent="1" source="RgY5TkkTzBITuK21L_si-1" target="RgY5TkkTzBITuK21L_si-5" edge="1">
          <mxGeometry width="50" height="50" relative="1" as="geometry">
            <mxPoint x="460" y="300" as="sourcePoint" />
            <mxPoint x="510" y="250" as="targetPoint" />
          </mxGeometry>
        </mxCell>
        <mxCell id="RgY5TkkTzBITuK21L_si-27" value="" style="endArrow=classic;html=1;rounded=0;exitX=1;exitY=0.5;exitDx=0;exitDy=0;entryX=0;entryY=0.5;entryDx=0;entryDy=0;" parent="1" source="RgY5TkkTzBITuK21L_si-5" target="RgY5TkkTzBITuK21L_si-4" edge="1">
          <mxGeometry width="50" height="50" relative="1" as="geometry">
            <mxPoint x="520" y="480" as="sourcePoint" />
            <mxPoint x="570" y="430" as="targetPoint" />
          </mxGeometry>
        </mxCell>
        <mxCell id="RgY5TkkTzBITuK21L_si-28" value="" style="endArrow=classic;html=1;rounded=0;exitX=1;exitY=0.5;exitDx=0;exitDy=0;entryX=0;entryY=0.5;entryDx=0;entryDy=0;" parent="1" source="RgY5TkkTzBITuK21L_si-5" target="RgY5TkkTzBITuK21L_si-6" edge="1">
          <mxGeometry width="50" height="50" relative="1" as="geometry">
            <mxPoint x="520" y="480" as="sourcePoint" />
            <mxPoint x="570" y="430" as="targetPoint" />
          </mxGeometry>
        </mxCell>
        <mxCell id="RgY5TkkTzBITuK21L_si-29" value="" style="endArrow=classic;html=1;rounded=0;exitX=1;exitY=0.5;exitDx=0;exitDy=0;entryX=0;entryY=0.5;entryDx=0;entryDy=0;" parent="1" source="RgY5TkkTzBITuK21L_si-5" target="RgY5TkkTzBITuK21L_si-7" edge="1">
          <mxGeometry width="50" height="50" relative="1" as="geometry">
            <mxPoint x="520" y="480" as="sourcePoint" />
            <mxPoint x="570" y="430" as="targetPoint" />
          </mxGeometry>
        </mxCell>
        <mxCell id="RgY5TkkTzBITuK21L_si-30" value="" style="endArrow=classic;html=1;rounded=0;exitX=1;exitY=0.5;exitDx=0;exitDy=0;entryX=0;entryY=0.5;entryDx=0;entryDy=0;" parent="1" source="RgY5TkkTzBITuK21L_si-12" target="RgY5TkkTzBITuK21L_si-14" edge="1">
          <mxGeometry width="50" height="50" relative="1" as="geometry">
            <mxPoint x="990" y="290" as="sourcePoint" />
            <mxPoint x="1040" y="240" as="targetPoint" />
          </mxGeometry>
        </mxCell>
        <mxCell id="RgY5TkkTzBITuK21L_si-31" value="" style="endArrow=classic;html=1;rounded=0;exitX=1;exitY=0.5;exitDx=0;exitDy=0;entryX=0;entryY=0.5;entryDx=0;entryDy=0;" parent="1" source="RgY5TkkTzBITuK21L_si-12" target="RgY5TkkTzBITuK21L_si-13" edge="1">
          <mxGeometry width="50" height="50" relative="1" as="geometry">
            <mxPoint x="990" y="290" as="sourcePoint" />
            <mxPoint x="1040" y="240" as="targetPoint" />
          </mxGeometry>
        </mxCell>
        <mxCell id="RgY5TkkTzBITuK21L_si-32" value="" style="endArrow=classic;html=1;rounded=0;exitX=1;exitY=0.5;exitDx=0;exitDy=0;entryX=0;entryY=0.5;entryDx=0;entryDy=0;" parent="1" source="RgY5TkkTzBITuK21L_si-12" target="RgY5TkkTzBITuK21L_si-15" edge="1">
          <mxGeometry width="50" height="50" relative="1" as="geometry">
            <mxPoint x="990" y="290" as="sourcePoint" />
            <mxPoint x="1040" y="240" as="targetPoint" />
          </mxGeometry>
        </mxCell>
        <mxCell id="RgY5TkkTzBITuK21L_si-33" value="" style="endArrow=classic;html=1;rounded=0;exitX=1;exitY=0.5;exitDx=0;exitDy=0;entryX=0;entryY=0.5;entryDx=0;entryDy=0;" parent="1" source="RgY5TkkTzBITuK21L_si-9" target="RgY5TkkTzBITuK21L_si-11" edge="1">
          <mxGeometry width="50" height="50" relative="1" as="geometry">
            <mxPoint x="990" y="-70" as="sourcePoint" />
            <mxPoint x="1040" y="-120" as="targetPoint" />
          </mxGeometry>
        </mxCell>
      </root>
    </mxGraphModel>
  </diagram>
  <diagram id="idXRP72dXNUJhHLEyqWN" name="er_diagram">
    <mxGraphModel dx="1193" dy="909" grid="1" gridSize="10" guides="1" tooltips="1" connect="1" arrows="1" fold="1" page="1" pageScale="1" pageWidth="827" pageHeight="1169" math="0" shadow="0">
      <root>
        <mxCell id="0" />
        <mxCell id="1" parent="0" />
        <mxCell id="ofxPnBVIqwKfScwh-fhe-1" value="USER" style="rounded=0;whiteSpace=wrap;html=1;" vertex="1" parent="1">
          <mxGeometry x="360" y="360" width="80" height="40" as="geometry" />
        </mxCell>
        <mxCell id="ofxPnBVIqwKfScwh-fhe-2" value="R1" style="rhombus;whiteSpace=wrap;html=1;" vertex="1" parent="1">
          <mxGeometry x="360" y="260" width="80" height="40" as="geometry" />
        </mxCell>
        <mxCell id="ofxPnBVIqwKfScwh-fhe-3" value="R2" style="rhombus;whiteSpace=wrap;html=1;" vertex="1" parent="1">
          <mxGeometry x="360" y="460" width="80" height="45" as="geometry" />
        </mxCell>
        <mxCell id="ofxPnBVIqwKfScwh-fhe-4" value="REQUEST" style="rounded=0;whiteSpace=wrap;html=1;" vertex="1" parent="1">
          <mxGeometry x="360" y="160" width="80" height="40" as="geometry" />
        </mxCell>
        <mxCell id="ofxPnBVIqwKfScwh-fhe-5" value="Participation" style="rhombus;whiteSpace=wrap;html=1;" vertex="1" parent="1">
          <mxGeometry x="520" y="360" width="120" height="40" as="geometry" />
        </mxCell>
        <mxCell id="ofxPnBVIqwKfScwh-fhe-6" value="" style="endArrow=none;html=1;rounded=0;entryX=0.5;entryY=1;entryDx=0;entryDy=0;exitX=0.5;exitY=0;exitDx=0;exitDy=0;" edge="1" parent="1" source="ofxPnBVIqwKfScwh-fhe-1" target="ofxPnBVIqwKfScwh-fhe-2">
          <mxGeometry width="50" height="50" relative="1" as="geometry">
            <mxPoint x="390" y="400" as="sourcePoint" />
            <mxPoint x="440" y="350" as="targetPoint" />
          </mxGeometry>
        </mxCell>
        <mxCell id="ofxPnBVIqwKfScwh-fhe-7" value="" style="endArrow=none;html=1;rounded=0;entryX=0.5;entryY=1;entryDx=0;entryDy=0;exitX=0.5;exitY=0;exitDx=0;exitDy=0;" edge="1" parent="1" source="ofxPnBVIqwKfScwh-fhe-2" target="ofxPnBVIqwKfScwh-fhe-4">
          <mxGeometry width="50" height="50" relative="1" as="geometry">
            <mxPoint x="390" y="400" as="sourcePoint" />
            <mxPoint x="440" y="350" as="targetPoint" />
          </mxGeometry>
        </mxCell>
        <mxCell id="ofxPnBVIqwKfScwh-fhe-8" value="" style="endArrow=none;html=1;rounded=0;entryX=0;entryY=0.5;entryDx=0;entryDy=0;exitX=1;exitY=0.5;exitDx=0;exitDy=0;" edge="1" parent="1" source="ofxPnBVIqwKfScwh-fhe-1" target="ofxPnBVIqwKfScwh-fhe-5">
          <mxGeometry width="50" height="50" relative="1" as="geometry">
            <mxPoint x="390" y="400" as="sourcePoint" />
            <mxPoint x="440" y="350" as="targetPoint" />
          </mxGeometry>
        </mxCell>
        <mxCell id="ofxPnBVIqwKfScwh-fhe-9" value="EVENT" style="rounded=0;whiteSpace=wrap;html=1;" vertex="1" parent="1">
          <mxGeometry x="720" y="360" width="80" height="40" as="geometry" />
        </mxCell>
        <mxCell id="ofxPnBVIqwKfScwh-fhe-10" value="" style="endArrow=none;html=1;rounded=0;entryX=0;entryY=0.5;entryDx=0;entryDy=0;exitX=1;exitY=0.5;exitDx=0;exitDy=0;" edge="1" parent="1" source="ofxPnBVIqwKfScwh-fhe-5" target="ofxPnBVIqwKfScwh-fhe-9">
          <mxGeometry width="50" height="50" relative="1" as="geometry">
            <mxPoint x="560" y="400" as="sourcePoint" />
            <mxPoint x="610" y="350" as="targetPoint" />
          </mxGeometry>
        </mxCell>
        <mxCell id="ofxPnBVIqwKfScwh-fhe-11" value="PAYMENT STRATEGY" style="rounded=0;whiteSpace=wrap;html=1;" vertex="1" parent="1">
          <mxGeometry x="320" y="560" width="160" height="40" as="geometry" />
        </mxCell>
        <mxCell id="ofxPnBVIqwKfScwh-fhe-12" value="" style="endArrow=none;html=1;rounded=0;entryX=0.5;entryY=1;entryDx=0;entryDy=0;exitX=0.5;exitY=0;exitDx=0;exitDy=0;" edge="1" parent="1" source="ofxPnBVIqwKfScwh-fhe-3" target="ofxPnBVIqwKfScwh-fhe-1">
          <mxGeometry width="50" height="50" relative="1" as="geometry">
            <mxPoint x="560" y="490" as="sourcePoint" />
            <mxPoint x="610" y="440" as="targetPoint" />
          </mxGeometry>
        </mxCell>
        <mxCell id="ofxPnBVIqwKfScwh-fhe-13" value="" style="endArrow=none;html=1;rounded=0;exitX=0.5;exitY=0;exitDx=0;exitDy=0;entryX=0.5;entryY=1;entryDx=0;entryDy=0;" edge="1" parent="1" source="ofxPnBVIqwKfScwh-fhe-11" target="ofxPnBVIqwKfScwh-fhe-3">
          <mxGeometry width="50" height="50" relative="1" as="geometry">
            <mxPoint x="560" y="490" as="sourcePoint" />
            <mxPoint x="610" y="440" as="targetPoint" />
          </mxGeometry>
        </mxCell>
        <mxCell id="ofxPnBVIqwKfScwh-fhe-14" value="CREDIT CARD" style="rounded=0;whiteSpace=wrap;html=1;" vertex="1" parent="1">
          <mxGeometry x="180" y="660" width="120" height="40" as="geometry" />
        </mxCell>
        <mxCell id="ofxPnBVIqwKfScwh-fhe-15" value="PAYPAL" style="rounded=0;whiteSpace=wrap;html=1;" vertex="1" parent="1">
          <mxGeometry x="505" y="660" width="80" height="40" as="geometry" />
        </mxCell>
        <mxCell id="ofxPnBVIqwKfScwh-fhe-18" value="" style="endArrow=classic;html=1;rounded=0;exitX=0.75;exitY=0;exitDx=0;exitDy=0;entryX=0.25;entryY=1;entryDx=0;entryDy=0;" edge="1" parent="1" source="ofxPnBVIqwKfScwh-fhe-14" target="ofxPnBVIqwKfScwh-fhe-11">
          <mxGeometry width="50" height="50" relative="1" as="geometry">
            <mxPoint x="560" y="510" as="sourcePoint" />
            <mxPoint x="610" y="460" as="targetPoint" />
            <Array as="points">
              <mxPoint x="270" y="630" />
              <mxPoint x="360" y="630" />
            </Array>
          </mxGeometry>
        </mxCell>
        <mxCell id="ofxPnBVIqwKfScwh-fhe-19" value="" style="endArrow=classic;html=1;rounded=0;exitX=0.313;exitY=-0.012;exitDx=0;exitDy=0;entryX=0.75;entryY=1;entryDx=0;entryDy=0;exitPerimeter=0;" edge="1" parent="1" source="ofxPnBVIqwKfScwh-fhe-15" target="ofxPnBVIqwKfScwh-fhe-11">
          <mxGeometry width="50" height="50" relative="1" as="geometry">
            <mxPoint x="560" y="510" as="sourcePoint" />
            <mxPoint x="610" y="460" as="targetPoint" />
            <Array as="points">
              <mxPoint x="530" y="630" />
              <mxPoint x="440" y="630" />
            </Array>
          </mxGeometry>
        </mxCell>
        <mxCell id="ofxPnBVIqwKfScwh-fhe-20" value="(1,1)" style="text;html=1;align=center;verticalAlign=middle;whiteSpace=wrap;rounded=0;" vertex="1" parent="1">
          <mxGeometry x="400" y="510" width="60" height="30" as="geometry" />
        </mxCell>
        <mxCell id="ofxPnBVIqwKfScwh-fhe-21" value="(0,1)" style="text;html=1;align=center;verticalAlign=middle;whiteSpace=wrap;rounded=0;" vertex="1" parent="1">
          <mxGeometry x="400" y="420" width="60" height="30" as="geometry" />
        </mxCell>
        <mxCell id="ofxPnBVIqwKfScwh-fhe-22" value="(0,N)" style="text;html=1;align=center;verticalAlign=middle;whiteSpace=wrap;rounded=0;" vertex="1" parent="1">
          <mxGeometry x="400" y="310" width="60" height="30" as="geometry" />
        </mxCell>
        <mxCell id="ofxPnBVIqwKfScwh-fhe-23" value="(X,N)" style="text;html=1;align=center;verticalAlign=middle;whiteSpace=wrap;rounded=0;" vertex="1" parent="1">
          <mxGeometry x="400" y="220" width="60" height="30" as="geometry" />
        </mxCell>
        <mxCell id="ofxPnBVIqwKfScwh-fhe-24" value="(X,N)" style="text;html=1;align=center;verticalAlign=middle;whiteSpace=wrap;rounded=0;" vertex="1" parent="1">
          <mxGeometry x="460" y="380" width="60" height="30" as="geometry" />
        </mxCell>
        <mxCell id="ofxPnBVIqwKfScwh-fhe-25" value="(X,N)" style="text;html=1;align=center;verticalAlign=middle;whiteSpace=wrap;rounded=0;" vertex="1" parent="1">
          <mxGeometry x="650" y="380" width="60" height="30" as="geometry" />
        </mxCell>
        <mxCell id="ofxPnBVIqwKfScwh-fhe-26" value="" style="endArrow=none;html=1;rounded=0;exitX=0.5;exitY=0;exitDx=0;exitDy=0;" edge="1" parent="1" source="ofxPnBVIqwKfScwh-fhe-27">
          <mxGeometry width="50" height="50" relative="1" as="geometry">
            <mxPoint x="560" y="510" as="sourcePoint" />
            <mxPoint x="580" y="340" as="targetPoint" />
          </mxGeometry>
        </mxCell>
        <mxCell id="ofxPnBVIqwKfScwh-fhe-28" value="" style="endArrow=none;html=1;rounded=0;exitX=0.5;exitY=0;exitDx=0;exitDy=0;" edge="1" parent="1" source="ofxPnBVIqwKfScwh-fhe-5" target="ofxPnBVIqwKfScwh-fhe-27">
          <mxGeometry width="50" height="50" relative="1" as="geometry">
            <mxPoint x="580" y="360" as="sourcePoint" />
            <mxPoint x="580" y="340" as="targetPoint" />
          </mxGeometry>
        </mxCell>
        <mxCell id="ofxPnBVIqwKfScwh-fhe-27" value="" style="ellipse;whiteSpace=wrap;html=1;aspect=fixed;" vertex="1" parent="1">
          <mxGeometry x="575" y="330" width="10" height="10" as="geometry" />
        </mxCell>
        <mxCell id="ofxPnBVIqwKfScwh-fhe-31" value="" style="endArrow=none;html=1;rounded=0;exitX=0.5;exitY=0;exitDx=0;exitDy=0;entryX=0.5;entryY=1;entryDx=0;entryDy=0;" edge="1" parent="1" target="ofxPnBVIqwKfScwh-fhe-42">
          <mxGeometry width="50" height="50" relative="1" as="geometry">
            <mxPoint x="734.82" y="360" as="sourcePoint" />
            <mxPoint x="734.82" y="340" as="targetPoint" />
          </mxGeometry>
        </mxCell>
        <mxCell id="ofxPnBVIqwKfScwh-fhe-32" value="" style="endArrow=none;html=1;rounded=0;exitX=0.5;exitY=0;exitDx=0;exitDy=0;" edge="1" parent="1">
          <mxGeometry width="50" height="50" relative="1" as="geometry">
            <mxPoint x="784.8199999999999" y="360" as="sourcePoint" />
            <mxPoint x="785" y="350" as="targetPoint" />
          </mxGeometry>
        </mxCell>
        <mxCell id="ofxPnBVIqwKfScwh-fhe-33" value="" style="endArrow=none;html=1;rounded=0;exitX=0.5;exitY=0;exitDx=0;exitDy=0;" edge="1" parent="1" source="ofxPnBVIqwKfScwh-fhe-40">
          <mxGeometry width="50" height="50" relative="1" as="geometry">
            <mxPoint x="735" y="420" as="sourcePoint" />
            <mxPoint x="734.82" y="400" as="targetPoint" />
          </mxGeometry>
        </mxCell>
        <mxCell id="ofxPnBVIqwKfScwh-fhe-34" value="" style="endArrow=none;html=1;rounded=0;exitX=0.5;exitY=0;exitDx=0;exitDy=0;entryX=0.5;entryY=1;entryDx=0;entryDy=0;" edge="1" parent="1" target="ofxPnBVIqwKfScwh-fhe-46">
          <mxGeometry width="50" height="50" relative="1" as="geometry">
            <mxPoint x="759.52" y="360" as="sourcePoint" />
            <mxPoint x="759.52" y="340" as="targetPoint" />
          </mxGeometry>
        </mxCell>
        <mxCell id="ofxPnBVIqwKfScwh-fhe-35" value="" style="endArrow=none;html=1;rounded=0;" edge="1" parent="1">
          <mxGeometry width="50" height="50" relative="1" as="geometry">
            <mxPoint x="785" y="410" as="sourcePoint" />
            <mxPoint x="784.82" y="400" as="targetPoint" />
          </mxGeometry>
        </mxCell>
        <mxCell id="ofxPnBVIqwKfScwh-fhe-36" value="" style="endArrow=none;html=1;rounded=0;exitX=0.5;exitY=0;exitDx=0;exitDy=0;" edge="1" parent="1" source="ofxPnBVIqwKfScwh-fhe-44">
          <mxGeometry width="50" height="50" relative="1" as="geometry">
            <mxPoint x="760" y="420" as="sourcePoint" />
            <mxPoint x="759.52" y="400" as="targetPoint" />
          </mxGeometry>
        </mxCell>
        <mxCell id="ofxPnBVIqwKfScwh-fhe-37" value="" style="endArrow=none;html=1;rounded=0;entryX=1.003;entryY=0.127;entryDx=0;entryDy=0;exitX=0;exitY=0.5;exitDx=0;exitDy=0;entryPerimeter=0;" edge="1" parent="1" source="ofxPnBVIqwKfScwh-fhe-45" target="ofxPnBVIqwKfScwh-fhe-9">
          <mxGeometry width="50" height="50" relative="1" as="geometry">
            <mxPoint x="820" y="370" as="sourcePoint" />
            <mxPoint x="730" y="400" as="targetPoint" />
            <Array as="points" />
          </mxGeometry>
        </mxCell>
        <mxCell id="ofxPnBVIqwKfScwh-fhe-38" value="" style="endArrow=none;html=1;rounded=0;entryX=1;entryY=0.25;entryDx=0;entryDy=0;exitX=0;exitY=0.5;exitDx=0;exitDy=0;" edge="1" parent="1" source="ofxPnBVIqwKfScwh-fhe-43">
          <mxGeometry width="50" height="50" relative="1" as="geometry">
            <mxPoint x="820" y="394.82" as="sourcePoint" />
            <mxPoint x="800" y="394.82" as="targetPoint" />
          </mxGeometry>
        </mxCell>
        <mxCell id="ofxPnBVIqwKfScwh-fhe-39" value="" style="ellipse;whiteSpace=wrap;html=1;aspect=fixed;" vertex="1" parent="1">
          <mxGeometry x="780" y="410" width="10" height="10" as="geometry" />
        </mxCell>
        <mxCell id="ofxPnBVIqwKfScwh-fhe-40" value="" style="ellipse;whiteSpace=wrap;html=1;aspect=fixed;" vertex="1" parent="1">
          <mxGeometry x="730" y="450" width="10" height="10" as="geometry" />
        </mxCell>
        <mxCell id="ofxPnBVIqwKfScwh-fhe-41" value="" style="ellipse;whiteSpace=wrap;html=1;aspect=fixed;" vertex="1" parent="1">
          <mxGeometry x="780" y="340" width="10" height="10" as="geometry" />
        </mxCell>
        <mxCell id="ofxPnBVIqwKfScwh-fhe-42" value="" style="ellipse;whiteSpace=wrap;html=1;aspect=fixed;fillColor=#000000;strokeColor=#36393d;" vertex="1" parent="1">
          <mxGeometry x="730" y="300" width="10" height="10" as="geometry" />
        </mxCell>
        <mxCell id="ofxPnBVIqwKfScwh-fhe-43" value="" style="ellipse;whiteSpace=wrap;html=1;aspect=fixed;" vertex="1" parent="1">
          <mxGeometry x="827" y="390" width="10" height="10" as="geometry" />
        </mxCell>
        <mxCell id="ofxPnBVIqwKfScwh-fhe-44" value="" style="ellipse;whiteSpace=wrap;html=1;aspect=fixed;" vertex="1" parent="1">
          <mxGeometry x="755" y="430" width="10" height="10" as="geometry" />
        </mxCell>
        <mxCell id="ofxPnBVIqwKfScwh-fhe-45" value="" style="ellipse;whiteSpace=wrap;html=1;aspect=fixed;" vertex="1" parent="1">
          <mxGeometry x="827" y="360" width="10" height="10" as="geometry" />
        </mxCell>
        <mxCell id="ofxPnBVIqwKfScwh-fhe-46" value="" style="ellipse;whiteSpace=wrap;html=1;aspect=fixed;" vertex="1" parent="1">
          <mxGeometry x="755" y="320" width="10" height="10" as="geometry" />
        </mxCell>
        <mxCell id="ofxPnBVIqwKfScwh-fhe-51" value="code" style="text;html=1;align=center;verticalAlign=middle;whiteSpace=wrap;rounded=0;" vertex="1" parent="1">
          <mxGeometry x="730" y="290" width="60" height="30" as="geometry" />
        </mxCell>
        <mxCell id="ofxPnBVIqwKfScwh-fhe-52" value="name" style="text;html=1;align=center;verticalAlign=middle;whiteSpace=wrap;rounded=0;" vertex="1" parent="1">
          <mxGeometry x="755" y="310" width="60" height="30" as="geometry" />
        </mxCell>
        <mxCell id="ofxPnBVIqwKfScwh-fhe-53" value="description" style="text;html=1;align=center;verticalAlign=middle;whiteSpace=wrap;rounded=0;" vertex="1" parent="1">
          <mxGeometry x="790" y="330" width="70" height="30" as="geometry" />
        </mxCell>
        <mxCell id="ofxPnBVIqwKfScwh-fhe-54" value="location" style="text;html=1;align=center;verticalAlign=middle;whiteSpace=wrap;rounded=0;" vertex="1" parent="1">
          <mxGeometry x="837" y="350" width="60" height="30" as="geometry" />
        </mxCell>
        <mxCell id="ofxPnBVIqwKfScwh-fhe-55" value="date" style="text;html=1;align=center;verticalAlign=middle;whiteSpace=wrap;rounded=0;" vertex="1" parent="1">
          <mxGeometry x="827" y="380" width="60" height="30" as="geometry" />
        </mxCell>
        <mxCell id="ofxPnBVIqwKfScwh-fhe-56" value="time" style="text;html=1;align=center;verticalAlign=middle;whiteSpace=wrap;rounded=0;" vertex="1" parent="1">
          <mxGeometry x="780" y="400" width="60" height="30" as="geometry" />
        </mxCell>
        <mxCell id="ofxPnBVIqwKfScwh-fhe-57" value="fee" style="text;html=1;align=center;verticalAlign=middle;whiteSpace=wrap;rounded=0;" vertex="1" parent="1">
          <mxGeometry x="750" y="420" width="65" height="30" as="geometry" />
        </mxCell>
        <mxCell id="ofxPnBVIqwKfScwh-fhe-58" value="refundable" style="text;html=1;align=center;verticalAlign=middle;whiteSpace=wrap;rounded=0;" vertex="1" parent="1">
          <mxGeometry x="740" y="440" width="70" height="30" as="geometry" />
        </mxCell>
        <mxCell id="ofxPnBVIqwKfScwh-fhe-60" value="paymentMethod" style="text;html=1;align=center;verticalAlign=middle;whiteSpace=wrap;rounded=0;" vertex="1" parent="1">
          <mxGeometry x="550" y="300" width="60" height="30" as="geometry" />
        </mxCell>
        <mxCell id="ofxPnBVIqwKfScwh-fhe-61" value="" style="ellipse;whiteSpace=wrap;html=1;aspect=fixed;" vertex="1" parent="1">
          <mxGeometry x="421" y="140" width="10" height="10" as="geometry" />
        </mxCell>
        <mxCell id="ofxPnBVIqwKfScwh-fhe-62" value="" style="ellipse;whiteSpace=wrap;html=1;aspect=fixed;fillColor=#000000;strokeColor=#36393d;" vertex="1" parent="1">
          <mxGeometry x="371" y="100" width="10" height="10" as="geometry" />
        </mxCell>
        <mxCell id="ofxPnBVIqwKfScwh-fhe-63" value="" style="ellipse;whiteSpace=wrap;html=1;aspect=fixed;" vertex="1" parent="1">
          <mxGeometry x="395" y="120" width="10" height="10" as="geometry" />
        </mxCell>
        <mxCell id="ofxPnBVIqwKfScwh-fhe-64" value="code" style="text;html=1;align=center;verticalAlign=middle;whiteSpace=wrap;rounded=0;" vertex="1" parent="1">
          <mxGeometry x="371" y="90" width="60" height="30" as="geometry" />
        </mxCell>
        <mxCell id="ofxPnBVIqwKfScwh-fhe-65" value="user_id" style="text;html=1;align=center;verticalAlign=middle;whiteSpace=wrap;rounded=0;" vertex="1" parent="1">
          <mxGeometry x="400" y="110" width="60" height="30" as="geometry" />
        </mxCell>
        <mxCell id="ofxPnBVIqwKfScwh-fhe-66" value="" style="endArrow=none;html=1;rounded=0;entryX=0.079;entryY=0.667;entryDx=0;entryDy=0;entryPerimeter=0;" edge="1" parent="1" target="ofxPnBVIqwKfScwh-fhe-64">
          <mxGeometry width="50" height="50" relative="1" as="geometry">
            <mxPoint x="375.71" y="160" as="sourcePoint" />
            <mxPoint x="375.71" y="120" as="targetPoint" />
          </mxGeometry>
        </mxCell>
        <mxCell id="ofxPnBVIqwKfScwh-fhe-67" value="" style="endArrow=none;html=1;rounded=0;entryX=0.079;entryY=0.667;entryDx=0;entryDy=0;entryPerimeter=0;" edge="1" parent="1">
          <mxGeometry width="50" height="50" relative="1" as="geometry">
            <mxPoint x="400" y="160" as="sourcePoint" />
            <mxPoint x="399.7" y="130" as="targetPoint" />
          </mxGeometry>
        </mxCell>
        <mxCell id="ofxPnBVIqwKfScwh-fhe-68" value="" style="endArrow=none;html=1;rounded=0;entryX=0.079;entryY=0.667;entryDx=0;entryDy=0;entryPerimeter=0;exitX=0.826;exitY=-0.009;exitDx=0;exitDy=0;exitPerimeter=0;" edge="1" parent="1" source="ofxPnBVIqwKfScwh-fhe-4">
          <mxGeometry width="50" height="50" relative="1" as="geometry">
            <mxPoint x="425.71" y="200" as="sourcePoint" />
            <mxPoint x="426" y="150" as="targetPoint" />
          </mxGeometry>
        </mxCell>
        <mxCell id="ofxPnBVIqwKfScwh-fhe-69" value="description" style="text;html=1;align=center;verticalAlign=middle;whiteSpace=wrap;rounded=0;" vertex="1" parent="1">
          <mxGeometry x="430" y="130" width="70" height="30" as="geometry" />
        </mxCell>
        <mxCell id="ofxPnBVIqwKfScwh-fhe-71" value="" style="endArrow=none;html=1;rounded=0;entryX=0.079;entryY=0.667;entryDx=0;entryDy=0;entryPerimeter=0;" edge="1" parent="1">
          <mxGeometry width="50" height="50" relative="1" as="geometry">
            <mxPoint x="544.81" y="730" as="sourcePoint" />
            <mxPoint x="545.0999999999999" y="700" as="targetPoint" />
          </mxGeometry>
        </mxCell>
        <mxCell id="ofxPnBVIqwKfScwh-fhe-72" value="" style="endArrow=none;html=1;rounded=0;entryX=0.079;entryY=0.667;entryDx=0;entryDy=0;entryPerimeter=0;" edge="1" parent="1">
          <mxGeometry width="50" height="50" relative="1" as="geometry">
            <mxPoint x="575.0699999999999" y="710" as="sourcePoint" />
            <mxPoint x="574.9999999999999" y="700" as="targetPoint" />
          </mxGeometry>
        </mxCell>
        <mxCell id="ofxPnBVIqwKfScwh-fhe-73" value="" style="ellipse;whiteSpace=wrap;html=1;aspect=fixed;movable=1;resizable=1;rotatable=1;deletable=1;editable=1;locked=0;connectable=1;" vertex="1" parent="1">
          <mxGeometry x="570" y="710" width="10" height="10" as="geometry" />
        </mxCell>
        <mxCell id="ofxPnBVIqwKfScwh-fhe-74" value="" style="ellipse;whiteSpace=wrap;html=1;aspect=fixed;fillColor=#000000;strokeColor=#36393d;" vertex="1" parent="1">
          <mxGeometry x="190" y="770" width="10" height="10" as="geometry" />
        </mxCell>
        <mxCell id="ofxPnBVIqwKfScwh-fhe-76" value="" style="ellipse;whiteSpace=wrap;html=1;aspect=fixed;fillColor=#000000;strokeColor=#36393d;" vertex="1" parent="1">
          <mxGeometry x="280" y="315" width="10" height="10" as="geometry" />
        </mxCell>
        <mxCell id="ofxPnBVIqwKfScwh-fhe-75" value="" style="ellipse;whiteSpace=wrap;html=1;aspect=fixed;fillColor=#000000;strokeColor=#36393d;" vertex="1" parent="1">
          <mxGeometry x="510" y="750" width="10" height="10" as="geometry" />
        </mxCell>
        <mxCell id="ofxPnBVIqwKfScwh-fhe-79" value="" style="ellipse;whiteSpace=wrap;html=1;aspect=fixed;" vertex="1" parent="1">
          <mxGeometry x="280" y="335" width="10" height="10" as="geometry" />
        </mxCell>
        <mxCell id="ofxPnBVIqwKfScwh-fhe-86" value="" style="ellipse;whiteSpace=wrap;html=1;aspect=fixed;" vertex="1" parent="1">
          <mxGeometry x="280" y="710" width="10" height="10" as="geometry" />
        </mxCell>
        <mxCell id="ofxPnBVIqwKfScwh-fhe-87" value="" style="ellipse;whiteSpace=wrap;html=1;aspect=fixed;" vertex="1" parent="1">
          <mxGeometry x="220" y="750" width="10" height="10" as="geometry" />
        </mxCell>
        <mxCell id="ofxPnBVIqwKfScwh-fhe-88" value="" style="ellipse;whiteSpace=wrap;html=1;aspect=fixed;" vertex="1" parent="1">
          <mxGeometry x="250" y="730" width="10" height="10" as="geometry" />
        </mxCell>
        <mxCell id="ofxPnBVIqwKfScwh-fhe-89" value="" style="ellipse;whiteSpace=wrap;html=1;aspect=fixed;" vertex="1" parent="1">
          <mxGeometry x="540" y="730" width="10" height="10" as="geometry" />
        </mxCell>
        <mxCell id="ofxPnBVIqwKfScwh-fhe-92" value="" style="endArrow=none;html=1;rounded=0;entryX=0.079;entryY=0.667;entryDx=0;entryDy=0;entryPerimeter=0;" edge="1" parent="1">
          <mxGeometry width="50" height="50" relative="1" as="geometry">
            <mxPoint x="284.79" y="710" as="sourcePoint" />
            <mxPoint x="284.8499999999999" y="700" as="targetPoint" />
          </mxGeometry>
        </mxCell>
        <mxCell id="ofxPnBVIqwKfScwh-fhe-93" value="" style="endArrow=none;html=1;rounded=0;entryX=0.079;entryY=0.667;entryDx=0;entryDy=0;entryPerimeter=0;" edge="1" parent="1">
          <mxGeometry width="50" height="50" relative="1" as="geometry">
            <mxPoint x="254.78999999999996" y="730" as="sourcePoint" />
            <mxPoint x="255.07999999999987" y="700" as="targetPoint" />
          </mxGeometry>
        </mxCell>
        <mxCell id="ofxPnBVIqwKfScwh-fhe-94" value="" style="endArrow=none;html=1;rounded=0;entryX=0.079;entryY=0.667;entryDx=0;entryDy=0;entryPerimeter=0;exitX=0.5;exitY=0;exitDx=0;exitDy=0;" edge="1" parent="1">
          <mxGeometry width="50" height="50" relative="1" as="geometry">
            <mxPoint x="224.79" y="750" as="sourcePoint" />
            <mxPoint x="224.84999999999988" y="700" as="targetPoint" />
          </mxGeometry>
        </mxCell>
        <mxCell id="ofxPnBVIqwKfScwh-fhe-97" value="cardNumber" style="text;html=1;align=center;verticalAlign=middle;whiteSpace=wrap;rounded=0;" vertex="1" parent="1">
          <mxGeometry x="210" y="760" width="60" height="30" as="geometry" />
        </mxCell>
        <mxCell id="ofxPnBVIqwKfScwh-fhe-98" value="cardType" style="text;html=1;align=center;verticalAlign=middle;whiteSpace=wrap;rounded=0;" vertex="1" parent="1">
          <mxGeometry x="230" y="740" width="60" height="30" as="geometry" />
        </mxCell>
        <mxCell id="ofxPnBVIqwKfScwh-fhe-99" value="cardExpirationDate" style="text;html=1;align=center;verticalAlign=middle;whiteSpace=wrap;rounded=0;" vertex="1" parent="1">
          <mxGeometry x="285" y="720" width="60" height="30" as="geometry" />
        </mxCell>
        <mxCell id="ofxPnBVIqwKfScwh-fhe-100" value="" style="endArrow=none;html=1;rounded=0;entryX=0.079;entryY=0.667;entryDx=0;entryDy=0;entryPerimeter=0;exitX=0.5;exitY=0;exitDx=0;exitDy=0;" edge="1" parent="1">
          <mxGeometry width="50" height="50" relative="1" as="geometry">
            <mxPoint x="194.79" y="770" as="sourcePoint" />
            <mxPoint x="194.84999999999994" y="700" as="targetPoint" />
          </mxGeometry>
        </mxCell>
        <mxCell id="ofxPnBVIqwKfScwh-fhe-101" value="cardSecurityCode" style="text;html=1;align=center;verticalAlign=middle;whiteSpace=wrap;rounded=0;" vertex="1" parent="1">
          <mxGeometry x="311" y="700" width="60" height="30" as="geometry" />
        </mxCell>
        <mxCell id="ofxPnBVIqwKfScwh-fhe-102" value="" style="endArrow=none;html=1;rounded=0;entryX=0.079;entryY=0.667;entryDx=0;entryDy=0;entryPerimeter=0;exitX=0.5;exitY=0;exitDx=0;exitDy=0;" edge="1" parent="1">
          <mxGeometry width="50" height="50" relative="1" as="geometry">
            <mxPoint x="514.81" y="750" as="sourcePoint" />
            <mxPoint x="515.0199999999999" y="700" as="targetPoint" />
          </mxGeometry>
        </mxCell>
        <mxCell id="ofxPnBVIqwKfScwh-fhe-103" value="uniqueCode" style="text;html=1;align=center;verticalAlign=middle;whiteSpace=wrap;rounded=0;" vertex="1" parent="1">
          <mxGeometry x="525" y="740" width="60" height="30" as="geometry" />
        </mxCell>
        <mxCell id="ofxPnBVIqwKfScwh-fhe-104" value="accountEmail" style="text;html=1;align=center;verticalAlign=middle;whiteSpace=wrap;rounded=0;" vertex="1" parent="1">
          <mxGeometry x="560" y="720" width="60" height="30" as="geometry" />
        </mxCell>
        <mxCell id="ofxPnBVIqwKfScwh-fhe-105" value="accountPassword" style="text;html=1;align=center;verticalAlign=middle;whiteSpace=wrap;rounded=0;" vertex="1" parent="1">
          <mxGeometry x="600" y="700" width="60" height="30" as="geometry" />
        </mxCell>
        <mxCell id="ofxPnBVIqwKfScwh-fhe-106" value="" style="endArrow=none;html=1;rounded=0;" edge="1" parent="1">
          <mxGeometry width="50" height="50" relative="1" as="geometry">
            <mxPoint x="320" y="440" as="sourcePoint" />
            <mxPoint x="320" y="320" as="targetPoint" />
          </mxGeometry>
        </mxCell>
        <mxCell id="ofxPnBVIqwKfScwh-fhe-107" value="" style="ellipse;whiteSpace=wrap;html=1;aspect=fixed;" vertex="1" parent="1">
          <mxGeometry x="280" y="355" width="10" height="10" as="geometry" />
        </mxCell>
        <mxCell id="ofxPnBVIqwKfScwh-fhe-108" value="" style="ellipse;whiteSpace=wrap;html=1;aspect=fixed;" vertex="1" parent="1">
          <mxGeometry x="280" y="375" width="10" height="10" as="geometry" />
        </mxCell>
        <mxCell id="ofxPnBVIqwKfScwh-fhe-109" value="" style="ellipse;whiteSpace=wrap;html=1;aspect=fixed;direction=south;" vertex="1" parent="1">
          <mxGeometry x="280" y="395" width="10" height="10" as="geometry" />
        </mxCell>
        <mxCell id="ofxPnBVIqwKfScwh-fhe-110" value="" style="ellipse;whiteSpace=wrap;html=1;aspect=fixed;" vertex="1" parent="1">
          <mxGeometry x="280" y="435" width="10" height="10" as="geometry" />
        </mxCell>
        <mxCell id="ofxPnBVIqwKfScwh-fhe-111" value="" style="ellipse;whiteSpace=wrap;html=1;aspect=fixed;" vertex="1" parent="1">
          <mxGeometry x="280" y="415" width="10" height="10" as="geometry" />
        </mxCell>
        <mxCell id="ofxPnBVIqwKfScwh-fhe-112" value="" style="endArrow=none;html=1;rounded=0;exitX=1;exitY=0.5;exitDx=0;exitDy=0;" edge="1" parent="1" source="ofxPnBVIqwKfScwh-fhe-76">
          <mxGeometry width="50" height="50" relative="1" as="geometry">
            <mxPoint x="360" y="400" as="sourcePoint" />
            <mxPoint x="320" y="320" as="targetPoint" />
          </mxGeometry>
        </mxCell>
        <mxCell id="ofxPnBVIqwKfScwh-fhe-113" value="" style="endArrow=none;html=1;rounded=0;exitX=1;exitY=0.5;exitDx=0;exitDy=0;" edge="1" parent="1">
          <mxGeometry width="50" height="50" relative="1" as="geometry">
            <mxPoint x="290" y="339.8" as="sourcePoint" />
            <mxPoint x="320" y="339.8" as="targetPoint" />
          </mxGeometry>
        </mxCell>
        <mxCell id="ofxPnBVIqwKfScwh-fhe-114" value="" style="endArrow=none;html=1;rounded=0;exitX=1;exitY=0.5;exitDx=0;exitDy=0;" edge="1" parent="1">
          <mxGeometry width="50" height="50" relative="1" as="geometry">
            <mxPoint x="290" y="359.6" as="sourcePoint" />
            <mxPoint x="320" y="359.6" as="targetPoint" />
          </mxGeometry>
        </mxCell>
        <mxCell id="ofxPnBVIqwKfScwh-fhe-115" value="" style="endArrow=none;html=1;rounded=0;exitX=1;exitY=0.5;exitDx=0;exitDy=0;" edge="1" parent="1">
          <mxGeometry width="50" height="50" relative="1" as="geometry">
            <mxPoint x="290" y="379.8" as="sourcePoint" />
            <mxPoint x="320" y="379.8" as="targetPoint" />
          </mxGeometry>
        </mxCell>
        <mxCell id="ofxPnBVIqwKfScwh-fhe-116" value="" style="endArrow=none;html=1;rounded=0;exitX=1;exitY=0.5;exitDx=0;exitDy=0;" edge="1" parent="1">
          <mxGeometry width="50" height="50" relative="1" as="geometry">
            <mxPoint x="290" y="399.6" as="sourcePoint" />
            <mxPoint x="320" y="399.6" as="targetPoint" />
          </mxGeometry>
        </mxCell>
        <mxCell id="ofxPnBVIqwKfScwh-fhe-117" value="" style="endArrow=none;html=1;rounded=0;exitX=1;exitY=0.5;exitDx=0;exitDy=0;" edge="1" parent="1">
          <mxGeometry width="50" height="50" relative="1" as="geometry">
            <mxPoint x="290" y="419.8" as="sourcePoint" />
            <mxPoint x="320" y="419.8" as="targetPoint" />
          </mxGeometry>
        </mxCell>
        <mxCell id="ofxPnBVIqwKfScwh-fhe-118" value="" style="endArrow=none;html=1;rounded=0;exitX=1;exitY=0.5;exitDx=0;exitDy=0;" edge="1" parent="1">
          <mxGeometry width="50" height="50" relative="1" as="geometry">
            <mxPoint x="290" y="439.6" as="sourcePoint" />
            <mxPoint x="320" y="439.6" as="targetPoint" />
          </mxGeometry>
        </mxCell>
        <mxCell id="ofxPnBVIqwKfScwh-fhe-119" value="" style="endArrow=none;html=1;rounded=0;" edge="1" parent="1">
          <mxGeometry width="50" height="50" relative="1" as="geometry">
            <mxPoint x="320" y="380" as="sourcePoint" />
            <mxPoint x="360" y="380" as="targetPoint" />
          </mxGeometry>
        </mxCell>
        <mxCell id="ofxPnBVIqwKfScwh-fhe-120" value="id" style="text;html=1;align=center;verticalAlign=middle;whiteSpace=wrap;rounded=0;" vertex="1" parent="1">
          <mxGeometry x="240" y="305" width="60" height="30" as="geometry" />
        </mxCell>
        <mxCell id="ofxPnBVIqwKfScwh-fhe-121" value="name" style="text;html=1;align=center;verticalAlign=middle;whiteSpace=wrap;rounded=0;" vertex="1" parent="1">
          <mxGeometry x="230" y="325" width="60" height="30" as="geometry" />
        </mxCell>
        <mxCell id="ofxPnBVIqwKfScwh-fhe-122" value="surname" style="text;html=1;align=center;verticalAlign=middle;whiteSpace=wrap;rounded=0;" vertex="1" parent="1">
          <mxGeometry x="215" y="345" width="70" height="30" as="geometry" />
        </mxCell>
        <mxCell id="ofxPnBVIqwKfScwh-fhe-123" value="age" style="text;html=1;align=center;verticalAlign=middle;whiteSpace=wrap;rounded=0;" vertex="1" parent="1">
          <mxGeometry x="230" y="365" width="70" height="30" as="geometry" />
        </mxCell>
        <mxCell id="ofxPnBVIqwKfScwh-fhe-124" value="username" style="text;html=1;align=center;verticalAlign=middle;whiteSpace=wrap;rounded=0;" vertex="1" parent="1">
          <mxGeometry x="220" y="385" width="60" height="30" as="geometry" />
        </mxCell>
        <mxCell id="ofxPnBVIqwKfScwh-fhe-125" value="email" style="text;html=1;align=center;verticalAlign=middle;whiteSpace=wrap;rounded=0;" vertex="1" parent="1">
          <mxGeometry x="230" y="405" width="60" height="30" as="geometry" />
        </mxCell>
        <mxCell id="ofxPnBVIqwKfScwh-fhe-126" value="password" style="text;html=1;align=center;verticalAlign=middle;whiteSpace=wrap;rounded=0;" vertex="1" parent="1">
          <mxGeometry x="220" y="425" width="60" height="30" as="geometry" />
        </mxCell>
      </root>
    </mxGraphModel>
  </diagram>
</mxfile>
